G75*
%MOIN*%
%OFA0B0*%
%FSLAX24Y24*%
%IPPOS*%
%LPD*%
%AMOC8*
5,1,8,0,0,1.08239X$1,22.5*
%
%ADD10C,0.0000*%
%ADD11OC8,0.0600*%
%ADD12C,0.2000*%
%ADD13R,0.0740X0.0740*%
%ADD14C,0.0740*%
%ADD15OC8,0.0520*%
%ADD16C,0.0594*%
%ADD17OC8,0.0660*%
%ADD18C,0.0850*%
%ADD19C,0.0520*%
%ADD20C,0.0554*%
%ADD21OC8,0.0740*%
%ADD22C,0.0040*%
%ADD23C,0.0560*%
%ADD24C,0.1000*%
%ADD25OC8,0.0700*%
%ADD26OC8,0.0630*%
%ADD27C,0.0630*%
%ADD28C,0.0600*%
%ADD29R,0.0550X0.0137*%
%ADD30C,0.0515*%
%ADD31C,0.0709*%
%ADD32R,0.0709X0.0630*%
%ADD33OC8,0.1900*%
%ADD34R,0.1900X0.1900*%
%ADD35OC8,0.0574*%
%ADD36OC8,0.1306*%
%ADD37C,0.0080*%
%ADD38C,0.0240*%
%ADD39C,0.0236*%
%ADD40C,0.0356*%
%ADD41C,0.0160*%
%ADD42C,0.0100*%
D10*
X002625Y002680D02*
X002625Y036050D01*
X050117Y036050D01*
X050117Y002680D01*
X002625Y002680D01*
X007495Y010180D02*
X007497Y010230D01*
X007503Y010280D01*
X007513Y010329D01*
X007527Y010377D01*
X007544Y010424D01*
X007565Y010469D01*
X007590Y010513D01*
X007618Y010554D01*
X007650Y010593D01*
X007684Y010630D01*
X007721Y010664D01*
X007761Y010694D01*
X007803Y010721D01*
X007847Y010745D01*
X007893Y010766D01*
X007940Y010782D01*
X007988Y010795D01*
X008038Y010804D01*
X008087Y010809D01*
X008138Y010810D01*
X008188Y010807D01*
X008237Y010800D01*
X008286Y010789D01*
X008334Y010774D01*
X008380Y010756D01*
X008425Y010734D01*
X008468Y010708D01*
X008509Y010679D01*
X008548Y010647D01*
X008584Y010612D01*
X008616Y010574D01*
X008646Y010534D01*
X008673Y010491D01*
X008696Y010447D01*
X008715Y010401D01*
X008731Y010353D01*
X008743Y010304D01*
X008751Y010255D01*
X008755Y010205D01*
X008755Y010155D01*
X008751Y010105D01*
X008743Y010056D01*
X008731Y010007D01*
X008715Y009959D01*
X008696Y009913D01*
X008673Y009869D01*
X008646Y009826D01*
X008616Y009786D01*
X008584Y009748D01*
X008548Y009713D01*
X008509Y009681D01*
X008468Y009652D01*
X008425Y009626D01*
X008380Y009604D01*
X008334Y009586D01*
X008286Y009571D01*
X008237Y009560D01*
X008188Y009553D01*
X008138Y009550D01*
X008087Y009551D01*
X008038Y009556D01*
X007988Y009565D01*
X007940Y009578D01*
X007893Y009594D01*
X007847Y009615D01*
X007803Y009639D01*
X007761Y009666D01*
X007721Y009696D01*
X007684Y009730D01*
X007650Y009767D01*
X007618Y009806D01*
X007590Y009847D01*
X007565Y009891D01*
X007544Y009936D01*
X007527Y009983D01*
X007513Y010031D01*
X007503Y010080D01*
X007497Y010130D01*
X007495Y010180D01*
X027995Y012180D02*
X027997Y012230D01*
X028003Y012280D01*
X028013Y012329D01*
X028027Y012377D01*
X028044Y012424D01*
X028065Y012469D01*
X028090Y012513D01*
X028118Y012554D01*
X028150Y012593D01*
X028184Y012630D01*
X028221Y012664D01*
X028261Y012694D01*
X028303Y012721D01*
X028347Y012745D01*
X028393Y012766D01*
X028440Y012782D01*
X028488Y012795D01*
X028538Y012804D01*
X028587Y012809D01*
X028638Y012810D01*
X028688Y012807D01*
X028737Y012800D01*
X028786Y012789D01*
X028834Y012774D01*
X028880Y012756D01*
X028925Y012734D01*
X028968Y012708D01*
X029009Y012679D01*
X029048Y012647D01*
X029084Y012612D01*
X029116Y012574D01*
X029146Y012534D01*
X029173Y012491D01*
X029196Y012447D01*
X029215Y012401D01*
X029231Y012353D01*
X029243Y012304D01*
X029251Y012255D01*
X029255Y012205D01*
X029255Y012155D01*
X029251Y012105D01*
X029243Y012056D01*
X029231Y012007D01*
X029215Y011959D01*
X029196Y011913D01*
X029173Y011869D01*
X029146Y011826D01*
X029116Y011786D01*
X029084Y011748D01*
X029048Y011713D01*
X029009Y011681D01*
X028968Y011652D01*
X028925Y011626D01*
X028880Y011604D01*
X028834Y011586D01*
X028786Y011571D01*
X028737Y011560D01*
X028688Y011553D01*
X028638Y011550D01*
X028587Y011551D01*
X028538Y011556D01*
X028488Y011565D01*
X028440Y011578D01*
X028393Y011594D01*
X028347Y011615D01*
X028303Y011639D01*
X028261Y011666D01*
X028221Y011696D01*
X028184Y011730D01*
X028150Y011767D01*
X028118Y011806D01*
X028090Y011847D01*
X028065Y011891D01*
X028044Y011936D01*
X028027Y011983D01*
X028013Y012031D01*
X028003Y012080D01*
X027997Y012130D01*
X027995Y012180D01*
X039995Y010180D02*
X039997Y010230D01*
X040003Y010280D01*
X040013Y010329D01*
X040027Y010377D01*
X040044Y010424D01*
X040065Y010469D01*
X040090Y010513D01*
X040118Y010554D01*
X040150Y010593D01*
X040184Y010630D01*
X040221Y010664D01*
X040261Y010694D01*
X040303Y010721D01*
X040347Y010745D01*
X040393Y010766D01*
X040440Y010782D01*
X040488Y010795D01*
X040538Y010804D01*
X040587Y010809D01*
X040638Y010810D01*
X040688Y010807D01*
X040737Y010800D01*
X040786Y010789D01*
X040834Y010774D01*
X040880Y010756D01*
X040925Y010734D01*
X040968Y010708D01*
X041009Y010679D01*
X041048Y010647D01*
X041084Y010612D01*
X041116Y010574D01*
X041146Y010534D01*
X041173Y010491D01*
X041196Y010447D01*
X041215Y010401D01*
X041231Y010353D01*
X041243Y010304D01*
X041251Y010255D01*
X041255Y010205D01*
X041255Y010155D01*
X041251Y010105D01*
X041243Y010056D01*
X041231Y010007D01*
X041215Y009959D01*
X041196Y009913D01*
X041173Y009869D01*
X041146Y009826D01*
X041116Y009786D01*
X041084Y009748D01*
X041048Y009713D01*
X041009Y009681D01*
X040968Y009652D01*
X040925Y009626D01*
X040880Y009604D01*
X040834Y009586D01*
X040786Y009571D01*
X040737Y009560D01*
X040688Y009553D01*
X040638Y009550D01*
X040587Y009551D01*
X040538Y009556D01*
X040488Y009565D01*
X040440Y009578D01*
X040393Y009594D01*
X040347Y009615D01*
X040303Y009639D01*
X040261Y009666D01*
X040221Y009696D01*
X040184Y009730D01*
X040150Y009767D01*
X040118Y009806D01*
X040090Y009847D01*
X040065Y009891D01*
X040044Y009936D01*
X040027Y009983D01*
X040013Y010031D01*
X040003Y010080D01*
X039997Y010130D01*
X039995Y010180D01*
X027995Y023180D02*
X027997Y023230D01*
X028003Y023280D01*
X028013Y023329D01*
X028027Y023377D01*
X028044Y023424D01*
X028065Y023469D01*
X028090Y023513D01*
X028118Y023554D01*
X028150Y023593D01*
X028184Y023630D01*
X028221Y023664D01*
X028261Y023694D01*
X028303Y023721D01*
X028347Y023745D01*
X028393Y023766D01*
X028440Y023782D01*
X028488Y023795D01*
X028538Y023804D01*
X028587Y023809D01*
X028638Y023810D01*
X028688Y023807D01*
X028737Y023800D01*
X028786Y023789D01*
X028834Y023774D01*
X028880Y023756D01*
X028925Y023734D01*
X028968Y023708D01*
X029009Y023679D01*
X029048Y023647D01*
X029084Y023612D01*
X029116Y023574D01*
X029146Y023534D01*
X029173Y023491D01*
X029196Y023447D01*
X029215Y023401D01*
X029231Y023353D01*
X029243Y023304D01*
X029251Y023255D01*
X029255Y023205D01*
X029255Y023155D01*
X029251Y023105D01*
X029243Y023056D01*
X029231Y023007D01*
X029215Y022959D01*
X029196Y022913D01*
X029173Y022869D01*
X029146Y022826D01*
X029116Y022786D01*
X029084Y022748D01*
X029048Y022713D01*
X029009Y022681D01*
X028968Y022652D01*
X028925Y022626D01*
X028880Y022604D01*
X028834Y022586D01*
X028786Y022571D01*
X028737Y022560D01*
X028688Y022553D01*
X028638Y022550D01*
X028587Y022551D01*
X028538Y022556D01*
X028488Y022565D01*
X028440Y022578D01*
X028393Y022594D01*
X028347Y022615D01*
X028303Y022639D01*
X028261Y022666D01*
X028221Y022696D01*
X028184Y022730D01*
X028150Y022767D01*
X028118Y022806D01*
X028090Y022847D01*
X028065Y022891D01*
X028044Y022936D01*
X028027Y022983D01*
X028013Y023031D01*
X028003Y023080D01*
X027997Y023130D01*
X027995Y023180D01*
X037495Y029180D02*
X037497Y029230D01*
X037503Y029280D01*
X037513Y029329D01*
X037527Y029377D01*
X037544Y029424D01*
X037565Y029469D01*
X037590Y029513D01*
X037618Y029554D01*
X037650Y029593D01*
X037684Y029630D01*
X037721Y029664D01*
X037761Y029694D01*
X037803Y029721D01*
X037847Y029745D01*
X037893Y029766D01*
X037940Y029782D01*
X037988Y029795D01*
X038038Y029804D01*
X038087Y029809D01*
X038138Y029810D01*
X038188Y029807D01*
X038237Y029800D01*
X038286Y029789D01*
X038334Y029774D01*
X038380Y029756D01*
X038425Y029734D01*
X038468Y029708D01*
X038509Y029679D01*
X038548Y029647D01*
X038584Y029612D01*
X038616Y029574D01*
X038646Y029534D01*
X038673Y029491D01*
X038696Y029447D01*
X038715Y029401D01*
X038731Y029353D01*
X038743Y029304D01*
X038751Y029255D01*
X038755Y029205D01*
X038755Y029155D01*
X038751Y029105D01*
X038743Y029056D01*
X038731Y029007D01*
X038715Y028959D01*
X038696Y028913D01*
X038673Y028869D01*
X038646Y028826D01*
X038616Y028786D01*
X038584Y028748D01*
X038548Y028713D01*
X038509Y028681D01*
X038468Y028652D01*
X038425Y028626D01*
X038380Y028604D01*
X038334Y028586D01*
X038286Y028571D01*
X038237Y028560D01*
X038188Y028553D01*
X038138Y028550D01*
X038087Y028551D01*
X038038Y028556D01*
X037988Y028565D01*
X037940Y028578D01*
X037893Y028594D01*
X037847Y028615D01*
X037803Y028639D01*
X037761Y028666D01*
X037721Y028696D01*
X037684Y028730D01*
X037650Y028767D01*
X037618Y028806D01*
X037590Y028847D01*
X037565Y028891D01*
X037544Y028936D01*
X037527Y028983D01*
X037513Y029031D01*
X037503Y029080D01*
X037497Y029130D01*
X037495Y029180D01*
X007995Y029180D02*
X007997Y029230D01*
X008003Y029280D01*
X008013Y029329D01*
X008027Y029377D01*
X008044Y029424D01*
X008065Y029469D01*
X008090Y029513D01*
X008118Y029554D01*
X008150Y029593D01*
X008184Y029630D01*
X008221Y029664D01*
X008261Y029694D01*
X008303Y029721D01*
X008347Y029745D01*
X008393Y029766D01*
X008440Y029782D01*
X008488Y029795D01*
X008538Y029804D01*
X008587Y029809D01*
X008638Y029810D01*
X008688Y029807D01*
X008737Y029800D01*
X008786Y029789D01*
X008834Y029774D01*
X008880Y029756D01*
X008925Y029734D01*
X008968Y029708D01*
X009009Y029679D01*
X009048Y029647D01*
X009084Y029612D01*
X009116Y029574D01*
X009146Y029534D01*
X009173Y029491D01*
X009196Y029447D01*
X009215Y029401D01*
X009231Y029353D01*
X009243Y029304D01*
X009251Y029255D01*
X009255Y029205D01*
X009255Y029155D01*
X009251Y029105D01*
X009243Y029056D01*
X009231Y029007D01*
X009215Y028959D01*
X009196Y028913D01*
X009173Y028869D01*
X009146Y028826D01*
X009116Y028786D01*
X009084Y028748D01*
X009048Y028713D01*
X009009Y028681D01*
X008968Y028652D01*
X008925Y028626D01*
X008880Y028604D01*
X008834Y028586D01*
X008786Y028571D01*
X008737Y028560D01*
X008688Y028553D01*
X008638Y028550D01*
X008587Y028551D01*
X008538Y028556D01*
X008488Y028565D01*
X008440Y028578D01*
X008393Y028594D01*
X008347Y028615D01*
X008303Y028639D01*
X008261Y028666D01*
X008221Y028696D01*
X008184Y028730D01*
X008150Y028767D01*
X008118Y028806D01*
X008090Y028847D01*
X008065Y028891D01*
X008044Y028936D01*
X008027Y028983D01*
X008013Y029031D01*
X008003Y029080D01*
X007997Y029130D01*
X007995Y029180D01*
D11*
X025625Y030680D03*
X025625Y031680D03*
X026625Y031680D03*
X026625Y030680D03*
X031605Y007680D03*
X032695Y007680D03*
X033775Y007680D03*
X034865Y007680D03*
X035955Y007680D03*
X037035Y007680D03*
X038125Y007680D03*
X039215Y007680D03*
X040295Y007680D03*
X041385Y007680D03*
X042475Y007680D03*
X043555Y007680D03*
X044645Y007680D03*
X044105Y006680D03*
X043015Y006680D03*
X041925Y006680D03*
X040845Y006680D03*
X039755Y006680D03*
X038665Y006680D03*
X037585Y006680D03*
X036495Y006680D03*
X035405Y006680D03*
X034325Y006680D03*
X033235Y006680D03*
X032145Y006680D03*
D12*
X028865Y007180D03*
X047385Y007180D03*
D13*
X048727Y031278D03*
D14*
X048727Y030278D03*
X048727Y029278D03*
X048727Y028278D03*
X048727Y027278D03*
X048727Y026278D03*
X048727Y025278D03*
X048727Y024278D03*
X048727Y023278D03*
X048727Y022278D03*
X048727Y021278D03*
X048727Y020278D03*
X048727Y019278D03*
X048727Y018278D03*
X048727Y017278D03*
X048727Y016278D03*
X040625Y012180D03*
X039625Y012180D03*
X038625Y010180D03*
X037625Y010180D03*
X036625Y010180D03*
X035625Y010180D03*
X034625Y010180D03*
X033625Y010180D03*
X032625Y010180D03*
X031625Y010180D03*
X029625Y010180D03*
X028625Y010180D03*
X027625Y010180D03*
X026625Y010180D03*
X025625Y010180D03*
X024625Y010180D03*
X023625Y010180D03*
X022625Y010180D03*
X020625Y010180D03*
X019625Y010180D03*
X018625Y010180D03*
X017625Y010180D03*
X016625Y010180D03*
X015625Y010180D03*
X014625Y010180D03*
X013625Y010180D03*
X013155Y008070D03*
X013155Y006290D03*
X010595Y006290D03*
X010595Y008070D03*
X013235Y013400D03*
X015015Y013400D03*
X017235Y013400D03*
X019015Y013400D03*
X020985Y013400D03*
X022765Y013400D03*
X024735Y013400D03*
X026515Y013400D03*
X026515Y015960D03*
X026515Y017150D03*
X024735Y017150D03*
X024735Y015960D03*
X022765Y015960D03*
X022765Y017150D03*
X020985Y017150D03*
X020985Y015960D03*
X019015Y015960D03*
X019015Y017150D03*
X017235Y017150D03*
X017235Y015960D03*
X015015Y015960D03*
X015015Y017150D03*
X013235Y017150D03*
X013235Y015960D03*
X013235Y019710D03*
X013235Y020900D03*
X015015Y020900D03*
X015015Y019710D03*
X017235Y019710D03*
X017235Y020900D03*
X019015Y020900D03*
X019015Y019710D03*
X020985Y019710D03*
X020985Y020900D03*
X022765Y020900D03*
X022765Y019710D03*
X024735Y019710D03*
X024735Y020900D03*
X026515Y020900D03*
X026515Y019710D03*
X026515Y023460D03*
X026515Y024650D03*
X024735Y024650D03*
X024735Y023460D03*
X022765Y023460D03*
X022765Y024650D03*
X020985Y024650D03*
X020985Y023460D03*
X019015Y023460D03*
X019015Y024650D03*
X017235Y024650D03*
X017235Y023460D03*
X015015Y023460D03*
X015015Y024650D03*
X013235Y024650D03*
X013235Y023460D03*
X013235Y027210D03*
X015015Y027210D03*
X017235Y027210D03*
X019015Y027210D03*
X020985Y027210D03*
X022765Y027210D03*
X024735Y027210D03*
X026515Y027210D03*
X026625Y029180D03*
X025625Y029180D03*
X024625Y029180D03*
X023625Y029180D03*
X022625Y029180D03*
X021625Y029180D03*
X020625Y029180D03*
X019025Y029180D03*
X018025Y029180D03*
X017025Y029180D03*
X016025Y029180D03*
X015025Y029180D03*
X014025Y029180D03*
X013025Y029180D03*
X012025Y029180D03*
X011025Y029180D03*
X010025Y029180D03*
X027625Y029180D03*
X029625Y029180D03*
X030625Y029180D03*
X031625Y029180D03*
X032625Y029180D03*
X033625Y029180D03*
X034625Y029180D03*
X035625Y029180D03*
X036625Y029180D03*
X039625Y029180D03*
X040625Y029180D03*
D15*
X040625Y031180D03*
X040625Y032680D03*
X038625Y031180D03*
X038125Y030680D03*
X036125Y030680D03*
X034875Y030680D03*
X033875Y030680D03*
X035375Y033180D03*
X036375Y033180D03*
X036375Y035180D03*
X037125Y035430D03*
X035375Y035180D03*
X040125Y035430D03*
X040625Y034680D03*
X028125Y034180D03*
X028125Y035430D03*
X025125Y035430D03*
X025125Y034180D03*
X025125Y032930D03*
X028125Y032930D03*
X020625Y030680D03*
X018625Y030680D03*
X015625Y030680D03*
X012625Y030680D03*
X015125Y033680D03*
X014125Y034180D03*
X011125Y034180D03*
X018125Y033680D03*
X044625Y013180D03*
X044625Y011680D03*
X044625Y010180D03*
X047625Y010180D03*
X047625Y011680D03*
X047625Y013180D03*
X048625Y014680D03*
X045625Y014680D03*
X012625Y010180D03*
X010625Y010180D03*
D16*
X044141Y027664D03*
X046109Y027664D03*
X045125Y025696D03*
D17*
X017625Y031680D03*
X016625Y031680D03*
X011125Y031680D03*
X010125Y031680D03*
X016125Y004180D03*
X017125Y004180D03*
D18*
X008586Y004696D03*
X008586Y006664D03*
X003664Y006664D03*
X003664Y004696D03*
X003664Y032196D03*
X003664Y034164D03*
X008586Y034164D03*
X008586Y032196D03*
D19*
X047125Y033420D02*
X047125Y033940D01*
X048125Y033940D02*
X048125Y033420D01*
X049125Y033420D02*
X049125Y033940D01*
D20*
X044625Y032460D03*
X044625Y029900D03*
D21*
X040625Y028180D03*
X039625Y028180D03*
X039625Y027180D03*
X039625Y026180D03*
X040625Y026180D03*
X040625Y027180D03*
X040625Y025180D03*
X040625Y024180D03*
X039625Y024180D03*
X039625Y025180D03*
X039625Y023180D03*
X040625Y023180D03*
X040625Y022180D03*
X040625Y021180D03*
X039625Y021180D03*
X039625Y022180D03*
X039625Y020180D03*
X039625Y019180D03*
X040625Y019180D03*
X040625Y020180D03*
X040625Y018180D03*
X039625Y018180D03*
X039625Y017180D03*
X039625Y016180D03*
X040625Y016180D03*
X040625Y017180D03*
X040625Y015180D03*
X039625Y015180D03*
X039625Y014180D03*
X039625Y013180D03*
X040625Y013180D03*
X040625Y014180D03*
D22*
X004305Y012600D02*
X003945Y012600D01*
X003945Y012760D01*
X004305Y012760D01*
X004305Y012600D01*
X004305Y012639D02*
X003945Y012639D01*
X003945Y012678D02*
X004305Y012678D01*
X004305Y012717D02*
X003945Y012717D01*
X003945Y012756D02*
X004305Y012756D01*
X004305Y011600D02*
X003945Y011600D01*
X003945Y011760D01*
X004305Y011760D01*
X004305Y011600D01*
X004305Y011639D02*
X003945Y011639D01*
X003945Y011678D02*
X004305Y011678D01*
X004305Y011717D02*
X003945Y011717D01*
X003945Y011756D02*
X004305Y011756D01*
X003805Y023100D02*
X003445Y023100D01*
X003445Y023260D01*
X003805Y023260D01*
X003805Y023100D01*
X003805Y023139D02*
X003445Y023139D01*
X003445Y023178D02*
X003805Y023178D01*
X003805Y023217D02*
X003445Y023217D01*
X003445Y023256D02*
X003805Y023256D01*
X003805Y023600D02*
X003445Y023600D01*
X003445Y023760D01*
X003805Y023760D01*
X003805Y023600D01*
X003805Y023639D02*
X003445Y023639D01*
X003445Y023678D02*
X003805Y023678D01*
X003805Y023717D02*
X003445Y023717D01*
X003445Y023756D02*
X003805Y023756D01*
X003805Y024600D02*
X003445Y024600D01*
X003445Y024760D01*
X003805Y024760D01*
X003805Y024600D01*
X003805Y024639D02*
X003445Y024639D01*
X003445Y024678D02*
X003805Y024678D01*
X003805Y024717D02*
X003445Y024717D01*
X003445Y024756D02*
X003805Y024756D01*
X003805Y025100D02*
X003445Y025100D01*
X003445Y025260D01*
X003805Y025260D01*
X003805Y025100D01*
X003805Y025139D02*
X003445Y025139D01*
X003445Y025178D02*
X003805Y025178D01*
X003805Y025217D02*
X003445Y025217D01*
X003445Y025256D02*
X003805Y025256D01*
D23*
X013377Y035430D03*
X014125Y035430D03*
X014912Y035430D03*
X012623Y003430D03*
X011875Y003430D03*
X011088Y003430D03*
D24*
X009985Y003430D03*
X013765Y003430D03*
X012235Y035430D03*
X016015Y035430D03*
D25*
X006831Y023966D03*
X006831Y022966D03*
X006831Y021966D03*
X006831Y020966D03*
X006831Y019966D03*
X006831Y018966D03*
X006831Y017966D03*
X006831Y016966D03*
D26*
X038625Y034380D03*
X042625Y034380D03*
D27*
X042625Y032980D03*
X038625Y032980D03*
D28*
X021425Y008180D02*
X020825Y008180D01*
X020825Y007180D02*
X021425Y007180D01*
X020425Y005680D02*
X019825Y005680D01*
X019825Y004680D02*
X020425Y004680D01*
X020425Y003680D02*
X019825Y003680D01*
D29*
X030186Y031517D03*
X030186Y031773D03*
X030186Y032028D03*
X030186Y032284D03*
X030186Y032540D03*
X030186Y032796D03*
X030186Y033052D03*
X030186Y033308D03*
X030186Y033564D03*
X030186Y033820D03*
X030186Y034076D03*
X030186Y034332D03*
X030186Y034587D03*
X030186Y034843D03*
X033064Y034843D03*
X033064Y034587D03*
X033064Y034332D03*
X033064Y034076D03*
X033064Y033820D03*
X033064Y033564D03*
X033064Y033308D03*
X033064Y033052D03*
X033064Y032796D03*
X033064Y032540D03*
X033064Y032284D03*
X033064Y032028D03*
X033064Y031773D03*
X033064Y031517D03*
D30*
X023625Y031180D03*
X021625Y031180D03*
D31*
X022125Y008680D03*
X026125Y008680D03*
D32*
X037625Y032129D03*
X037625Y033231D03*
D33*
X024095Y006680D03*
X022125Y005500D03*
D34*
X024095Y004320D03*
D35*
X022117Y032326D03*
X021133Y032326D03*
X021133Y033113D03*
X022117Y033113D03*
D36*
X023995Y034180D03*
X019255Y034180D03*
D37*
X020959Y033602D02*
X017359Y030002D01*
X010459Y030002D01*
X010209Y029752D01*
X009509Y029402D02*
X009509Y029002D01*
X009859Y028652D01*
X019359Y028652D01*
X020409Y029702D01*
X025109Y029702D01*
X025609Y029202D01*
X025625Y029180D01*
X025659Y029152D01*
X026159Y028652D01*
X027809Y028652D01*
X029909Y030752D01*
X030309Y030752D01*
X030459Y030602D01*
X032009Y030602D01*
X031809Y031502D02*
X033059Y031502D01*
X033064Y031517D01*
X033059Y031752D02*
X033064Y031773D01*
X033059Y031752D02*
X032409Y031752D01*
X033064Y032028D02*
X033109Y032002D01*
X034009Y032002D01*
X034909Y031102D01*
X035709Y031102D01*
X036109Y030702D01*
X036125Y030680D01*
X036009Y030752D01*
X034959Y029702D01*
X035625Y029180D02*
X035609Y029152D01*
X030609Y024152D01*
X030609Y022402D01*
X031109Y022302D02*
X031109Y023652D01*
X036609Y029152D01*
X036625Y029180D01*
X037159Y029702D02*
X037159Y030352D01*
X038109Y031302D01*
X038059Y031652D02*
X034709Y031652D01*
X034609Y031752D01*
X034109Y032152D02*
X033709Y032552D01*
X033109Y032552D01*
X033064Y032540D01*
X033059Y032552D01*
X033059Y032752D01*
X033064Y032796D01*
X033059Y032802D01*
X031759Y032802D01*
X030509Y034052D01*
X030209Y034052D01*
X030186Y034076D01*
X030159Y034052D01*
X029259Y034052D01*
X028159Y032952D01*
X028125Y032930D01*
X028259Y033352D02*
X027009Y033352D01*
X025759Y032102D01*
X025409Y032102D01*
X025159Y031852D01*
X025159Y031552D01*
X025609Y031102D01*
X026209Y031102D01*
X026609Y030702D01*
X026625Y030680D01*
X026659Y031252D02*
X027609Y030302D01*
X027609Y029202D01*
X027625Y029180D01*
X026625Y029180D02*
X026609Y029202D01*
X025659Y030152D01*
X025659Y030652D01*
X025625Y030680D01*
X025625Y031680D02*
X025659Y031702D01*
X026059Y032102D01*
X027859Y032102D01*
X029559Y033802D01*
X030159Y033802D01*
X030186Y033820D01*
X030209Y034552D02*
X030186Y034587D01*
X030209Y034552D02*
X030509Y034552D01*
X031709Y033352D01*
X033064Y033308D02*
X033109Y033302D01*
X035259Y033302D01*
X035359Y033202D01*
X035375Y033180D01*
X035959Y032752D02*
X036509Y032752D01*
X037109Y033352D01*
X037109Y033652D01*
X039309Y035852D01*
X047809Y035852D01*
X049559Y034102D01*
X049559Y015602D01*
X048659Y014702D01*
X048625Y014680D01*
X048159Y014902D02*
X049259Y016002D01*
X049259Y017752D01*
X048759Y018252D01*
X048727Y018278D01*
X048159Y018702D02*
X048709Y019252D01*
X048727Y019278D01*
X047809Y019802D02*
X047809Y013552D01*
X048009Y013352D01*
X048009Y009402D01*
X041859Y003252D01*
X041859Y003202D01*
X041509Y003202D02*
X047209Y008902D01*
X047209Y011252D01*
X047609Y011652D01*
X047625Y011680D01*
X047659Y011702D01*
X047659Y012652D01*
X045659Y014652D01*
X045625Y014680D01*
X047259Y013902D02*
X047259Y019852D01*
X041159Y025952D01*
X041159Y027652D01*
X040659Y028152D01*
X040625Y028180D01*
X039625Y028180D02*
X039609Y028202D01*
X039109Y028702D01*
X039109Y029402D01*
X039359Y029652D01*
X039359Y030152D01*
X039009Y030152D02*
X037959Y030152D01*
X037309Y029502D01*
X037309Y028902D01*
X038709Y027502D01*
X038709Y024402D01*
X039609Y023502D01*
X039609Y023202D01*
X039625Y023180D01*
X039609Y022502D02*
X038509Y023602D01*
X038509Y027452D01*
X037259Y028702D01*
X037159Y028702D01*
X038259Y028302D02*
X038909Y027652D01*
X038909Y025202D01*
X039609Y024502D01*
X039609Y024202D01*
X039625Y024180D01*
X040625Y025180D02*
X040659Y025152D01*
X040859Y025152D01*
X045209Y020802D01*
X045209Y007152D01*
X044259Y006202D01*
X037409Y006202D01*
X037109Y006502D01*
X037109Y006752D01*
X036209Y007652D01*
X035959Y007652D01*
X035955Y007680D01*
X036409Y007702D02*
X036409Y007852D01*
X034609Y009652D01*
X031459Y009652D01*
X031109Y010002D01*
X031109Y018652D01*
X038009Y025552D01*
X038259Y027352D02*
X038259Y019852D01*
X039609Y018502D01*
X039609Y018202D01*
X039625Y018180D01*
X039625Y016180D02*
X039609Y016152D01*
X039609Y015902D01*
X038859Y015152D01*
X038859Y011902D01*
X039409Y011352D01*
X040209Y011352D01*
X040309Y011602D02*
X039409Y011602D01*
X039059Y011952D01*
X039059Y012602D01*
X039609Y013152D01*
X039625Y013180D01*
X040625Y013180D02*
X040659Y013152D01*
X041159Y012652D01*
X041159Y011802D01*
X041759Y011202D01*
X041659Y010952D02*
X041259Y011352D01*
X041509Y011802D02*
X041509Y012302D01*
X041359Y012452D01*
X041359Y013452D01*
X040659Y014152D01*
X040625Y014180D01*
X041559Y014252D02*
X040659Y015152D01*
X040625Y015180D01*
X040659Y016152D02*
X041759Y015052D01*
X041759Y012552D01*
X042759Y011552D01*
X043809Y011552D01*
X045009Y010352D01*
X045009Y009952D01*
X044109Y009052D01*
X044109Y006702D01*
X044105Y006680D01*
X041959Y006702D02*
X041925Y006680D01*
X041959Y006702D02*
X041959Y010102D01*
X042609Y010752D01*
X042609Y011452D01*
X041559Y012502D01*
X041559Y014252D01*
X040659Y016152D02*
X040625Y016180D01*
X038609Y014152D02*
X038609Y011902D01*
X039609Y010902D01*
X039609Y009852D01*
X040809Y008652D01*
X041459Y008652D01*
X041109Y008402D02*
X039059Y008402D01*
X038359Y007702D01*
X038159Y007702D01*
X038125Y007680D01*
X038559Y007652D02*
X038559Y007502D01*
X038309Y007252D01*
X036859Y007252D01*
X036409Y007702D01*
X037035Y007680D02*
X037059Y007702D01*
X037509Y007702D01*
X038909Y009102D01*
X039309Y009102D01*
X039459Y009252D01*
X039459Y009752D01*
X039359Y009852D01*
X039359Y010902D01*
X038009Y012252D01*
X038009Y023552D01*
X039609Y022502D02*
X039609Y022202D01*
X039625Y022180D01*
X042859Y022802D02*
X042859Y011802D01*
X043359Y011802D02*
X043359Y022302D01*
X043659Y023952D02*
X047809Y019802D01*
X047509Y019852D02*
X041359Y026002D01*
X041359Y029152D01*
X040209Y030302D01*
X039859Y030302D01*
X039609Y030802D02*
X039609Y029202D01*
X039625Y029180D01*
X040509Y030252D02*
X044459Y026302D01*
X044459Y024552D01*
X048709Y020302D01*
X048727Y020278D01*
X047509Y019852D02*
X047509Y013652D01*
X047625Y013180D02*
X047659Y013152D01*
X047659Y012652D01*
X047409Y012302D02*
X045459Y012302D01*
X044009Y010652D02*
X043359Y011302D01*
X044009Y010652D02*
X044009Y009852D01*
X043109Y008952D01*
X042459Y008652D02*
X043759Y009952D01*
X042359Y010752D02*
X042359Y011302D01*
X042009Y011452D02*
X042009Y011102D01*
X041859Y010952D01*
X041659Y010952D01*
X042009Y010752D02*
X041159Y010752D01*
X040309Y011602D01*
X039159Y010852D02*
X037759Y012252D01*
X039159Y010852D02*
X039159Y009802D01*
X039209Y009752D01*
X039209Y009352D01*
X039009Y008102D02*
X038559Y007652D01*
X039009Y008102D02*
X040509Y008102D01*
X040909Y007702D01*
X041359Y007702D01*
X041385Y007680D01*
X041109Y007202D02*
X040659Y007652D01*
X040309Y007652D01*
X040295Y007680D01*
X041109Y009202D02*
X041109Y009502D01*
X042359Y010752D01*
X048259Y010802D02*
X048259Y013752D01*
X049809Y015302D01*
X049809Y032002D01*
X047109Y033652D02*
X047125Y033680D01*
X047109Y033652D02*
X045809Y033652D01*
X044659Y032502D01*
X044625Y032460D01*
X044209Y033502D02*
X044209Y030302D01*
X044609Y029902D01*
X044625Y029900D01*
X044659Y029852D01*
X046109Y028402D01*
X046109Y028252D01*
X047009Y027352D01*
X047759Y027352D02*
X045159Y029952D01*
X043659Y028902D02*
X042659Y029902D01*
X042659Y032952D01*
X042625Y032980D01*
X044209Y033502D02*
X042309Y035402D01*
X040159Y035402D01*
X040125Y035430D01*
X037159Y035402D02*
X037125Y035430D01*
X037159Y035402D02*
X036409Y034652D01*
X036409Y033202D01*
X036375Y033180D01*
X037159Y032502D02*
X035359Y032502D01*
X034109Y032152D02*
X037609Y032152D01*
X037625Y032129D01*
X037659Y032102D01*
X038309Y032102D01*
X039609Y030802D01*
X040509Y030352D02*
X040509Y030252D01*
X041009Y030102D02*
X041009Y030002D01*
X044659Y026352D01*
X044659Y025352D01*
X048709Y021302D01*
X048727Y021278D01*
X048159Y018702D02*
X048159Y015252D01*
X048509Y012302D02*
X048509Y006702D01*
X044759Y002952D01*
X019159Y002952D01*
X017209Y004902D01*
X017384Y005427D02*
X016159Y004202D01*
X016125Y004180D01*
X016109Y004152D01*
X012009Y004152D01*
X011309Y003452D01*
X011109Y003452D01*
X011088Y003430D01*
X008586Y006664D02*
X008559Y006702D01*
X006359Y008902D01*
X006359Y023202D01*
X006609Y023452D01*
X007009Y023452D01*
X011459Y027902D01*
X023059Y027902D01*
X024309Y029152D01*
X024609Y029152D01*
X024625Y029180D01*
X024509Y027702D02*
X026059Y027702D01*
X026509Y027252D01*
X026515Y027210D01*
X026509Y027202D01*
X026509Y024652D01*
X026515Y024650D01*
X026515Y023460D02*
X026509Y023452D01*
X026509Y020902D01*
X026515Y020900D01*
X026559Y020802D01*
X024959Y019202D01*
X024459Y019202D01*
X022809Y020852D01*
X022765Y020900D01*
X022759Y020902D01*
X022759Y023452D01*
X022765Y023460D01*
X022765Y024650D02*
X022759Y024652D01*
X022759Y027202D01*
X022765Y027210D01*
X022809Y027252D01*
X024059Y027252D01*
X024509Y027702D01*
X024735Y027210D02*
X024759Y027202D01*
X024759Y024652D01*
X024735Y024650D01*
X024759Y024602D01*
X024759Y023502D01*
X024735Y023460D01*
X024759Y023452D01*
X024759Y020902D01*
X024735Y020900D01*
X024759Y020852D01*
X024759Y019752D01*
X024735Y019710D01*
X026509Y019702D02*
X026509Y018452D01*
X022759Y018452D01*
X022759Y017152D01*
X022765Y017150D01*
X022309Y016452D02*
X022759Y016002D01*
X022765Y015960D01*
X022759Y015952D01*
X022759Y014702D01*
X026509Y014702D01*
X026509Y013402D01*
X026515Y013400D01*
X026259Y014202D02*
X024959Y012902D01*
X022559Y012902D01*
X022459Y013002D01*
X021709Y013002D01*
X021009Y013352D02*
X020985Y013400D01*
X021009Y013402D01*
X021009Y015952D01*
X020985Y015960D01*
X020759Y016452D02*
X022309Y016452D01*
X021009Y017152D02*
X020985Y017150D01*
X021009Y017152D02*
X021009Y019702D01*
X020985Y019710D01*
X021009Y019752D01*
X021009Y020852D01*
X020985Y020900D01*
X021009Y020902D01*
X021009Y023452D01*
X020985Y023460D01*
X021009Y023502D01*
X021009Y024602D01*
X020985Y024650D01*
X021009Y024652D01*
X021009Y027202D01*
X020985Y027210D01*
X020759Y027702D02*
X020309Y027252D01*
X019059Y027252D01*
X019015Y027210D01*
X019009Y027252D01*
X018559Y027702D01*
X017009Y027702D01*
X016559Y027252D01*
X015059Y027252D01*
X015015Y027210D01*
X015009Y027202D01*
X015009Y024652D01*
X015015Y024650D01*
X015015Y023460D02*
X015009Y023452D01*
X015009Y020902D01*
X015015Y020900D01*
X015015Y019710D02*
X015009Y019702D01*
X015009Y018452D01*
X019009Y018452D01*
X019009Y017152D01*
X019015Y017150D01*
X019009Y016002D02*
X017909Y016002D01*
X017459Y016452D01*
X015509Y016452D01*
X015059Y016002D01*
X015015Y015960D01*
X015009Y015952D01*
X015009Y013402D01*
X015015Y013400D01*
X013909Y012702D02*
X013259Y013352D01*
X013235Y013400D01*
X013259Y013402D01*
X013259Y015952D01*
X013235Y015960D01*
X013009Y016652D02*
X024059Y016652D01*
X024709Y016002D01*
X024735Y015960D01*
X024259Y016652D02*
X024059Y016652D01*
X024259Y016652D02*
X024709Y017102D01*
X024735Y017150D01*
X026509Y017152D02*
X026515Y017150D01*
X026509Y017152D02*
X026509Y018452D01*
X026509Y019702D02*
X026515Y019710D01*
X027609Y019802D02*
X026559Y020852D01*
X026515Y020900D01*
X027609Y019802D02*
X027609Y010202D01*
X027625Y010180D01*
X025625Y010180D02*
X025609Y010152D01*
X025309Y010152D01*
X024809Y009652D01*
X021859Y009652D01*
X018809Y012702D01*
X013909Y012702D01*
X015625Y010180D02*
X015609Y010152D01*
X013559Y008102D01*
X013159Y008102D01*
X013155Y008070D01*
X013109Y008052D01*
X010609Y008052D01*
X010595Y008070D01*
X010609Y008102D01*
X010609Y010152D01*
X010625Y010180D01*
X017609Y010152D02*
X017609Y005652D01*
X017384Y005427D01*
X019609Y003202D01*
X041509Y003202D01*
X033775Y007680D02*
X033759Y007702D01*
X033309Y007702D01*
X031559Y009452D01*
X031409Y009452D01*
X030359Y010502D01*
X030359Y026902D01*
X032609Y029152D01*
X032625Y029180D01*
X033609Y029202D02*
X033625Y029180D01*
X033609Y029202D02*
X033609Y029352D01*
X030709Y032252D01*
X033064Y033564D02*
X033109Y033602D01*
X033809Y033602D01*
X035359Y035152D01*
X035375Y035180D01*
X035959Y035602D02*
X036359Y035202D01*
X036375Y035180D01*
X035959Y035602D02*
X030259Y035602D01*
X028409Y033752D01*
X027159Y033752D01*
X026359Y032952D01*
X025159Y032952D01*
X025125Y032930D01*
X025759Y032702D02*
X024909Y031852D01*
X021159Y031852D01*
X020009Y030702D01*
X018659Y030702D01*
X018625Y030680D01*
X019859Y030002D02*
X021059Y030002D01*
X018409Y032152D02*
X017109Y032152D01*
X016659Y031702D01*
X016625Y031680D01*
X015609Y030702D02*
X015625Y030680D01*
X015609Y030702D02*
X015159Y031152D01*
X015159Y032602D01*
X013409Y034352D01*
X013409Y035402D01*
X013377Y035430D01*
X014125Y035430D02*
X014159Y035402D01*
X014159Y034702D01*
X016209Y034702D01*
X015159Y033652D02*
X015125Y033680D01*
X015159Y033652D02*
X015159Y032602D01*
X014159Y034202D02*
X014125Y034180D01*
X014159Y034202D02*
X014159Y034702D01*
X011159Y034152D02*
X011125Y034180D01*
X011159Y034152D02*
X011159Y031702D01*
X011125Y031680D01*
X010159Y031652D02*
X011109Y030702D01*
X012609Y030702D01*
X012625Y030680D01*
X010159Y031652D02*
X010125Y031680D01*
X008609Y032152D02*
X008609Y030302D01*
X009509Y029402D01*
X008609Y032152D02*
X008586Y032196D01*
X013235Y027210D02*
X013259Y027202D01*
X013259Y024652D01*
X013235Y024650D01*
X013259Y024602D01*
X013259Y023502D01*
X013235Y023460D01*
X013259Y023452D01*
X013259Y020902D01*
X013235Y020900D01*
X013209Y020852D01*
X013209Y019802D01*
X013235Y019710D01*
X013259Y019702D01*
X013259Y017152D01*
X013235Y017150D01*
X013009Y016652D02*
X012709Y016952D01*
X006859Y016952D01*
X006831Y016966D01*
X006859Y019952D02*
X006831Y019966D01*
X006859Y019952D02*
X013009Y019952D01*
X013209Y019752D01*
X013235Y019710D01*
X015009Y018452D02*
X015009Y017152D01*
X015015Y017150D01*
X017235Y015960D02*
X017259Y015952D01*
X017259Y013402D01*
X017235Y013400D01*
X017259Y013352D01*
X017709Y012902D01*
X018859Y012902D01*
X021009Y010752D01*
X022909Y010752D01*
X023609Y010752D02*
X021009Y013352D01*
X022759Y013402D02*
X022759Y014702D01*
X022759Y013402D02*
X022765Y013400D01*
X023609Y010752D02*
X023609Y010202D01*
X023625Y010180D01*
X022125Y008680D02*
X022109Y008652D01*
X021609Y008652D01*
X021159Y008202D01*
X021125Y008180D01*
X020359Y008052D02*
X020359Y008652D01*
X021059Y009352D01*
X021059Y009752D01*
X020659Y010152D01*
X020625Y010180D01*
X020359Y008052D02*
X021109Y007302D01*
X021109Y007202D01*
X021125Y007180D01*
X017609Y010152D02*
X017625Y010180D01*
X019009Y013402D02*
X019015Y013400D01*
X019009Y013402D02*
X019009Y015952D01*
X019015Y015960D01*
X019009Y016002D01*
X019015Y015960D02*
X019059Y016002D01*
X020309Y016002D01*
X020759Y016452D01*
X019009Y018452D02*
X019009Y019702D01*
X019015Y019710D01*
X019015Y020900D02*
X019009Y020902D01*
X019009Y023452D01*
X019015Y023460D01*
X019015Y024650D02*
X019009Y024652D01*
X019009Y027202D01*
X019015Y027210D01*
X017259Y027202D02*
X017235Y027210D01*
X017259Y027202D02*
X017259Y024652D01*
X017235Y024650D01*
X017259Y024602D01*
X017259Y023502D01*
X017235Y023460D01*
X017259Y023452D01*
X017259Y020902D01*
X017235Y020900D01*
X017259Y020852D01*
X017259Y019752D01*
X017235Y019710D01*
X022759Y019702D02*
X022759Y018452D01*
X022759Y019702D02*
X022765Y019710D01*
X026515Y015960D02*
X026509Y015952D01*
X026509Y014702D01*
X022765Y027210D02*
X022759Y027252D01*
X022309Y027702D01*
X020759Y027702D01*
X018409Y032152D02*
X021659Y035402D01*
X025109Y035402D01*
X025125Y035430D01*
X025125Y034180D02*
X025109Y034152D01*
X024809Y033852D01*
X024809Y033802D01*
X024359Y033352D01*
X022459Y033352D01*
X022209Y033602D01*
X020959Y033602D01*
X026625Y031680D02*
X026659Y031652D01*
X026659Y031252D01*
X029109Y029402D02*
X030209Y030502D01*
X029109Y029402D02*
X029109Y029002D01*
X029809Y028302D01*
X028259Y033352D02*
X029709Y034802D01*
X030159Y034802D01*
X030186Y034843D01*
X037159Y032502D02*
X037259Y032602D01*
X038359Y032602D01*
X038909Y032052D01*
X038209Y031802D02*
X038059Y031652D01*
X043059Y030102D02*
X046059Y027102D01*
X048559Y027102D01*
X048709Y027252D01*
X048727Y027278D01*
X048727Y028278D02*
X048709Y028302D01*
X047959Y029052D01*
X047159Y029052D01*
X046109Y028252D02*
X046109Y027702D01*
X046109Y027664D01*
X043659Y024052D02*
X043659Y023952D01*
X009609Y020202D02*
X006859Y022952D01*
X006831Y022966D01*
D38*
X009609Y020202D03*
X021709Y013002D03*
X022909Y010752D03*
X020759Y009452D03*
X017209Y004902D03*
X026259Y014202D03*
X030609Y022402D03*
X031109Y022302D03*
X038009Y023552D03*
X038009Y025552D03*
X038259Y027352D03*
X038259Y028302D03*
X037159Y028702D03*
X037159Y029702D03*
X038109Y031302D03*
X038209Y031802D03*
X038909Y032052D03*
X039859Y030302D03*
X039359Y030152D03*
X039009Y030152D03*
X040509Y030352D03*
X041009Y030102D03*
X043059Y030102D03*
X043659Y028902D03*
X045159Y029952D03*
X047159Y029052D03*
X047009Y027352D03*
X047759Y027352D03*
X043659Y024052D03*
X042859Y022802D03*
X043359Y022302D03*
X048159Y015252D03*
X048159Y014902D03*
X047259Y013902D03*
X047509Y013652D03*
X047409Y012302D03*
X048509Y012302D03*
X048259Y010802D03*
X045459Y012302D03*
X043359Y011802D03*
X043359Y011302D03*
X042859Y011802D03*
X042359Y011302D03*
X042009Y011452D03*
X041759Y011202D03*
X042009Y010752D03*
X041259Y011352D03*
X041509Y011802D03*
X040209Y011352D03*
X037759Y012252D03*
X038609Y014152D03*
X043759Y009952D03*
X043109Y008952D03*
X042459Y008652D03*
X041459Y008652D03*
X041109Y008402D03*
X041109Y009202D03*
X039209Y009352D03*
X041109Y007202D03*
X041859Y003202D03*
X029809Y028302D03*
X030209Y030502D03*
X032009Y030602D03*
X031809Y031502D03*
X032409Y031752D03*
X030709Y032252D03*
X031709Y033352D03*
X034609Y031752D03*
X035359Y032502D03*
X035959Y032752D03*
X034959Y029702D03*
X025759Y032702D03*
X021059Y030002D03*
X019859Y030002D03*
X016209Y034702D03*
X010209Y029752D03*
X049809Y032002D03*
D39*
X049109Y031652D02*
X048759Y031302D01*
X048727Y031278D01*
X049109Y031652D02*
X049109Y033652D01*
X049125Y033680D01*
X042625Y034380D02*
X042609Y034352D01*
X040759Y032502D01*
X040625Y032680D01*
X040559Y032452D01*
X038709Y034302D01*
X038625Y034380D01*
X038609Y034352D01*
X037659Y033402D01*
X037659Y033252D01*
X037625Y033231D01*
X040625Y032680D02*
X040659Y032652D01*
X040659Y031202D01*
X040625Y031180D01*
X040709Y031102D01*
X044109Y027702D01*
X044141Y027664D01*
X044209Y027602D01*
X046509Y025302D01*
X048709Y025302D01*
X048727Y025278D01*
X040609Y012202D02*
X039659Y012202D01*
X039625Y012180D01*
X040609Y012202D02*
X040625Y012180D01*
X039709Y006702D02*
X038759Y006702D01*
X038665Y006680D01*
X038659Y006702D01*
X037609Y006702D01*
X037585Y006680D01*
X036495Y006680D02*
X036459Y006702D01*
X035509Y006702D01*
X035405Y006680D01*
X035359Y006702D01*
X034359Y006702D01*
X034325Y006680D01*
X034209Y006702D01*
X033309Y006702D01*
X033235Y006680D01*
X033209Y006702D01*
X032159Y006702D01*
X032145Y006680D01*
X032059Y006602D01*
X030059Y006602D01*
X027809Y004352D01*
X024209Y004352D01*
X024095Y004320D01*
X024059Y004352D01*
X023259Y004352D01*
X022159Y005452D01*
X022125Y005500D01*
X024109Y006652D02*
X024095Y006680D01*
X024109Y006652D02*
X026109Y008652D01*
X026125Y008680D01*
X020759Y009452D02*
X019259Y007952D01*
X019259Y004452D01*
X020009Y003702D01*
X020109Y003702D01*
X020125Y003680D01*
X013155Y006290D02*
X013109Y006302D01*
X010609Y006302D01*
X010595Y006290D01*
X010509Y006252D01*
X008959Y004702D01*
X008609Y004702D01*
X008586Y004696D01*
X018625Y010180D02*
X018659Y010202D01*
X019609Y010202D01*
X019625Y010180D01*
X039709Y006702D02*
X039755Y006680D01*
X028125Y034180D02*
X028159Y034202D01*
X028159Y034702D01*
X024509Y034702D01*
X024009Y034202D01*
X023995Y034180D01*
X028159Y034702D02*
X028159Y035402D01*
X028125Y035430D01*
D40*
X032249Y033906D03*
X033941Y034342D03*
X032247Y032426D03*
D41*
X033064Y034332D02*
X033075Y034342D01*
D42*
X033941Y034342D01*
X033064Y034332D02*
X033064Y034076D01*
X032419Y034076D01*
X032249Y033906D01*
X032249Y033150D01*
X032255Y033144D01*
X032257Y033144D01*
X032347Y033054D01*
X033062Y033054D01*
X033064Y033052D01*
X033064Y032284D02*
X032389Y032284D01*
X032247Y032426D01*
X032245Y032424D01*
X031507Y032424D01*
X030623Y033308D01*
X030186Y033308D01*
M02*
