G75*
%MOIN*%
%OFA0B0*%
%FSLAX24Y24*%
%IPPOS*%
%LPD*%
%AMOC8*
5,1,8,0,0,1.08239X$1,22.5*
%
%ADD10C,0.0000*%
%ADD11OC8,0.0640*%
%ADD12C,0.2040*%
%ADD13R,0.0780X0.0780*%
%ADD14C,0.0780*%
%ADD15OC8,0.0560*%
%ADD16C,0.0634*%
%ADD17OC8,0.0700*%
%ADD18C,0.0890*%
%ADD19C,0.0560*%
%ADD20C,0.0594*%
%ADD21OC8,0.0780*%
%ADD22C,0.1300*%
%ADD23C,0.0048*%
%ADD24C,0.0600*%
%ADD25C,0.1040*%
%ADD26OC8,0.0740*%
%ADD27OC8,0.0670*%
%ADD28C,0.0670*%
%ADD29C,0.0640*%
%ADD30R,0.0590X0.0177*%
%ADD31C,0.0555*%
%ADD32C,0.0749*%
%ADD33R,0.0749X0.0670*%
%ADD34OC8,0.1940*%
%ADD35R,0.1940X0.1940*%
%ADD36OC8,0.0614*%
%ADD37OC8,0.1346*%
D10*
X002625Y002680D02*
X002625Y036050D01*
X050117Y036050D01*
X050117Y002680D01*
X002625Y002680D01*
X007495Y010180D02*
X007497Y010230D01*
X007503Y010280D01*
X007513Y010329D01*
X007527Y010377D01*
X007544Y010424D01*
X007565Y010469D01*
X007590Y010513D01*
X007618Y010554D01*
X007650Y010593D01*
X007684Y010630D01*
X007721Y010664D01*
X007761Y010694D01*
X007803Y010721D01*
X007847Y010745D01*
X007893Y010766D01*
X007940Y010782D01*
X007988Y010795D01*
X008038Y010804D01*
X008087Y010809D01*
X008138Y010810D01*
X008188Y010807D01*
X008237Y010800D01*
X008286Y010789D01*
X008334Y010774D01*
X008380Y010756D01*
X008425Y010734D01*
X008468Y010708D01*
X008509Y010679D01*
X008548Y010647D01*
X008584Y010612D01*
X008616Y010574D01*
X008646Y010534D01*
X008673Y010491D01*
X008696Y010447D01*
X008715Y010401D01*
X008731Y010353D01*
X008743Y010304D01*
X008751Y010255D01*
X008755Y010205D01*
X008755Y010155D01*
X008751Y010105D01*
X008743Y010056D01*
X008731Y010007D01*
X008715Y009959D01*
X008696Y009913D01*
X008673Y009869D01*
X008646Y009826D01*
X008616Y009786D01*
X008584Y009748D01*
X008548Y009713D01*
X008509Y009681D01*
X008468Y009652D01*
X008425Y009626D01*
X008380Y009604D01*
X008334Y009586D01*
X008286Y009571D01*
X008237Y009560D01*
X008188Y009553D01*
X008138Y009550D01*
X008087Y009551D01*
X008038Y009556D01*
X007988Y009565D01*
X007940Y009578D01*
X007893Y009594D01*
X007847Y009615D01*
X007803Y009639D01*
X007761Y009666D01*
X007721Y009696D01*
X007684Y009730D01*
X007650Y009767D01*
X007618Y009806D01*
X007590Y009847D01*
X007565Y009891D01*
X007544Y009936D01*
X007527Y009983D01*
X007513Y010031D01*
X007503Y010080D01*
X007497Y010130D01*
X007495Y010180D01*
X027995Y012180D02*
X027997Y012230D01*
X028003Y012280D01*
X028013Y012329D01*
X028027Y012377D01*
X028044Y012424D01*
X028065Y012469D01*
X028090Y012513D01*
X028118Y012554D01*
X028150Y012593D01*
X028184Y012630D01*
X028221Y012664D01*
X028261Y012694D01*
X028303Y012721D01*
X028347Y012745D01*
X028393Y012766D01*
X028440Y012782D01*
X028488Y012795D01*
X028538Y012804D01*
X028587Y012809D01*
X028638Y012810D01*
X028688Y012807D01*
X028737Y012800D01*
X028786Y012789D01*
X028834Y012774D01*
X028880Y012756D01*
X028925Y012734D01*
X028968Y012708D01*
X029009Y012679D01*
X029048Y012647D01*
X029084Y012612D01*
X029116Y012574D01*
X029146Y012534D01*
X029173Y012491D01*
X029196Y012447D01*
X029215Y012401D01*
X029231Y012353D01*
X029243Y012304D01*
X029251Y012255D01*
X029255Y012205D01*
X029255Y012155D01*
X029251Y012105D01*
X029243Y012056D01*
X029231Y012007D01*
X029215Y011959D01*
X029196Y011913D01*
X029173Y011869D01*
X029146Y011826D01*
X029116Y011786D01*
X029084Y011748D01*
X029048Y011713D01*
X029009Y011681D01*
X028968Y011652D01*
X028925Y011626D01*
X028880Y011604D01*
X028834Y011586D01*
X028786Y011571D01*
X028737Y011560D01*
X028688Y011553D01*
X028638Y011550D01*
X028587Y011551D01*
X028538Y011556D01*
X028488Y011565D01*
X028440Y011578D01*
X028393Y011594D01*
X028347Y011615D01*
X028303Y011639D01*
X028261Y011666D01*
X028221Y011696D01*
X028184Y011730D01*
X028150Y011767D01*
X028118Y011806D01*
X028090Y011847D01*
X028065Y011891D01*
X028044Y011936D01*
X028027Y011983D01*
X028013Y012031D01*
X028003Y012080D01*
X027997Y012130D01*
X027995Y012180D01*
X039995Y010180D02*
X039997Y010230D01*
X040003Y010280D01*
X040013Y010329D01*
X040027Y010377D01*
X040044Y010424D01*
X040065Y010469D01*
X040090Y010513D01*
X040118Y010554D01*
X040150Y010593D01*
X040184Y010630D01*
X040221Y010664D01*
X040261Y010694D01*
X040303Y010721D01*
X040347Y010745D01*
X040393Y010766D01*
X040440Y010782D01*
X040488Y010795D01*
X040538Y010804D01*
X040587Y010809D01*
X040638Y010810D01*
X040688Y010807D01*
X040737Y010800D01*
X040786Y010789D01*
X040834Y010774D01*
X040880Y010756D01*
X040925Y010734D01*
X040968Y010708D01*
X041009Y010679D01*
X041048Y010647D01*
X041084Y010612D01*
X041116Y010574D01*
X041146Y010534D01*
X041173Y010491D01*
X041196Y010447D01*
X041215Y010401D01*
X041231Y010353D01*
X041243Y010304D01*
X041251Y010255D01*
X041255Y010205D01*
X041255Y010155D01*
X041251Y010105D01*
X041243Y010056D01*
X041231Y010007D01*
X041215Y009959D01*
X041196Y009913D01*
X041173Y009869D01*
X041146Y009826D01*
X041116Y009786D01*
X041084Y009748D01*
X041048Y009713D01*
X041009Y009681D01*
X040968Y009652D01*
X040925Y009626D01*
X040880Y009604D01*
X040834Y009586D01*
X040786Y009571D01*
X040737Y009560D01*
X040688Y009553D01*
X040638Y009550D01*
X040587Y009551D01*
X040538Y009556D01*
X040488Y009565D01*
X040440Y009578D01*
X040393Y009594D01*
X040347Y009615D01*
X040303Y009639D01*
X040261Y009666D01*
X040221Y009696D01*
X040184Y009730D01*
X040150Y009767D01*
X040118Y009806D01*
X040090Y009847D01*
X040065Y009891D01*
X040044Y009936D01*
X040027Y009983D01*
X040013Y010031D01*
X040003Y010080D01*
X039997Y010130D01*
X039995Y010180D01*
X027995Y023180D02*
X027997Y023230D01*
X028003Y023280D01*
X028013Y023329D01*
X028027Y023377D01*
X028044Y023424D01*
X028065Y023469D01*
X028090Y023513D01*
X028118Y023554D01*
X028150Y023593D01*
X028184Y023630D01*
X028221Y023664D01*
X028261Y023694D01*
X028303Y023721D01*
X028347Y023745D01*
X028393Y023766D01*
X028440Y023782D01*
X028488Y023795D01*
X028538Y023804D01*
X028587Y023809D01*
X028638Y023810D01*
X028688Y023807D01*
X028737Y023800D01*
X028786Y023789D01*
X028834Y023774D01*
X028880Y023756D01*
X028925Y023734D01*
X028968Y023708D01*
X029009Y023679D01*
X029048Y023647D01*
X029084Y023612D01*
X029116Y023574D01*
X029146Y023534D01*
X029173Y023491D01*
X029196Y023447D01*
X029215Y023401D01*
X029231Y023353D01*
X029243Y023304D01*
X029251Y023255D01*
X029255Y023205D01*
X029255Y023155D01*
X029251Y023105D01*
X029243Y023056D01*
X029231Y023007D01*
X029215Y022959D01*
X029196Y022913D01*
X029173Y022869D01*
X029146Y022826D01*
X029116Y022786D01*
X029084Y022748D01*
X029048Y022713D01*
X029009Y022681D01*
X028968Y022652D01*
X028925Y022626D01*
X028880Y022604D01*
X028834Y022586D01*
X028786Y022571D01*
X028737Y022560D01*
X028688Y022553D01*
X028638Y022550D01*
X028587Y022551D01*
X028538Y022556D01*
X028488Y022565D01*
X028440Y022578D01*
X028393Y022594D01*
X028347Y022615D01*
X028303Y022639D01*
X028261Y022666D01*
X028221Y022696D01*
X028184Y022730D01*
X028150Y022767D01*
X028118Y022806D01*
X028090Y022847D01*
X028065Y022891D01*
X028044Y022936D01*
X028027Y022983D01*
X028013Y023031D01*
X028003Y023080D01*
X027997Y023130D01*
X027995Y023180D01*
X037495Y029180D02*
X037497Y029230D01*
X037503Y029280D01*
X037513Y029329D01*
X037527Y029377D01*
X037544Y029424D01*
X037565Y029469D01*
X037590Y029513D01*
X037618Y029554D01*
X037650Y029593D01*
X037684Y029630D01*
X037721Y029664D01*
X037761Y029694D01*
X037803Y029721D01*
X037847Y029745D01*
X037893Y029766D01*
X037940Y029782D01*
X037988Y029795D01*
X038038Y029804D01*
X038087Y029809D01*
X038138Y029810D01*
X038188Y029807D01*
X038237Y029800D01*
X038286Y029789D01*
X038334Y029774D01*
X038380Y029756D01*
X038425Y029734D01*
X038468Y029708D01*
X038509Y029679D01*
X038548Y029647D01*
X038584Y029612D01*
X038616Y029574D01*
X038646Y029534D01*
X038673Y029491D01*
X038696Y029447D01*
X038715Y029401D01*
X038731Y029353D01*
X038743Y029304D01*
X038751Y029255D01*
X038755Y029205D01*
X038755Y029155D01*
X038751Y029105D01*
X038743Y029056D01*
X038731Y029007D01*
X038715Y028959D01*
X038696Y028913D01*
X038673Y028869D01*
X038646Y028826D01*
X038616Y028786D01*
X038584Y028748D01*
X038548Y028713D01*
X038509Y028681D01*
X038468Y028652D01*
X038425Y028626D01*
X038380Y028604D01*
X038334Y028586D01*
X038286Y028571D01*
X038237Y028560D01*
X038188Y028553D01*
X038138Y028550D01*
X038087Y028551D01*
X038038Y028556D01*
X037988Y028565D01*
X037940Y028578D01*
X037893Y028594D01*
X037847Y028615D01*
X037803Y028639D01*
X037761Y028666D01*
X037721Y028696D01*
X037684Y028730D01*
X037650Y028767D01*
X037618Y028806D01*
X037590Y028847D01*
X037565Y028891D01*
X037544Y028936D01*
X037527Y028983D01*
X037513Y029031D01*
X037503Y029080D01*
X037497Y029130D01*
X037495Y029180D01*
X007995Y029180D02*
X007997Y029230D01*
X008003Y029280D01*
X008013Y029329D01*
X008027Y029377D01*
X008044Y029424D01*
X008065Y029469D01*
X008090Y029513D01*
X008118Y029554D01*
X008150Y029593D01*
X008184Y029630D01*
X008221Y029664D01*
X008261Y029694D01*
X008303Y029721D01*
X008347Y029745D01*
X008393Y029766D01*
X008440Y029782D01*
X008488Y029795D01*
X008538Y029804D01*
X008587Y029809D01*
X008638Y029810D01*
X008688Y029807D01*
X008737Y029800D01*
X008786Y029789D01*
X008834Y029774D01*
X008880Y029756D01*
X008925Y029734D01*
X008968Y029708D01*
X009009Y029679D01*
X009048Y029647D01*
X009084Y029612D01*
X009116Y029574D01*
X009146Y029534D01*
X009173Y029491D01*
X009196Y029447D01*
X009215Y029401D01*
X009231Y029353D01*
X009243Y029304D01*
X009251Y029255D01*
X009255Y029205D01*
X009255Y029155D01*
X009251Y029105D01*
X009243Y029056D01*
X009231Y029007D01*
X009215Y028959D01*
X009196Y028913D01*
X009173Y028869D01*
X009146Y028826D01*
X009116Y028786D01*
X009084Y028748D01*
X009048Y028713D01*
X009009Y028681D01*
X008968Y028652D01*
X008925Y028626D01*
X008880Y028604D01*
X008834Y028586D01*
X008786Y028571D01*
X008737Y028560D01*
X008688Y028553D01*
X008638Y028550D01*
X008587Y028551D01*
X008538Y028556D01*
X008488Y028565D01*
X008440Y028578D01*
X008393Y028594D01*
X008347Y028615D01*
X008303Y028639D01*
X008261Y028666D01*
X008221Y028696D01*
X008184Y028730D01*
X008150Y028767D01*
X008118Y028806D01*
X008090Y028847D01*
X008065Y028891D01*
X008044Y028936D01*
X008027Y028983D01*
X008013Y029031D01*
X008003Y029080D01*
X007997Y029130D01*
X007995Y029180D01*
D11*
X025625Y030680D03*
X025625Y031680D03*
X026625Y031680D03*
X026625Y030680D03*
X031605Y007680D03*
X032695Y007680D03*
X033775Y007680D03*
X034865Y007680D03*
X035955Y007680D03*
X037035Y007680D03*
X038125Y007680D03*
X039215Y007680D03*
X040295Y007680D03*
X041385Y007680D03*
X042475Y007680D03*
X043555Y007680D03*
X044645Y007680D03*
X044105Y006680D03*
X043015Y006680D03*
X041925Y006680D03*
X040845Y006680D03*
X039755Y006680D03*
X038665Y006680D03*
X037585Y006680D03*
X036495Y006680D03*
X035405Y006680D03*
X034325Y006680D03*
X033235Y006680D03*
X032145Y006680D03*
D12*
X028865Y007180D03*
X047385Y007180D03*
D13*
X048727Y031278D03*
D14*
X048727Y030278D03*
X048727Y029278D03*
X048727Y028278D03*
X048727Y027278D03*
X048727Y026278D03*
X048727Y025278D03*
X048727Y024278D03*
X048727Y023278D03*
X048727Y022278D03*
X048727Y021278D03*
X048727Y020278D03*
X048727Y019278D03*
X048727Y018278D03*
X048727Y017278D03*
X048727Y016278D03*
X040625Y012180D03*
X039625Y012180D03*
X038625Y010180D03*
X037625Y010180D03*
X036625Y010180D03*
X035625Y010180D03*
X034625Y010180D03*
X033625Y010180D03*
X032625Y010180D03*
X031625Y010180D03*
X029625Y010180D03*
X028625Y010180D03*
X027625Y010180D03*
X026625Y010180D03*
X025625Y010180D03*
X024625Y010180D03*
X023625Y010180D03*
X022625Y010180D03*
X020625Y010180D03*
X019625Y010180D03*
X018625Y010180D03*
X017625Y010180D03*
X016625Y010180D03*
X015625Y010180D03*
X014625Y010180D03*
X013625Y010180D03*
X013155Y008070D03*
X013155Y006290D03*
X010595Y006290D03*
X010595Y008070D03*
X013235Y013400D03*
X015015Y013400D03*
X017235Y013400D03*
X019015Y013400D03*
X020985Y013400D03*
X022765Y013400D03*
X024735Y013400D03*
X026515Y013400D03*
X026515Y015960D03*
X026515Y017150D03*
X024735Y017150D03*
X024735Y015960D03*
X022765Y015960D03*
X022765Y017150D03*
X020985Y017150D03*
X020985Y015960D03*
X019015Y015960D03*
X019015Y017150D03*
X017235Y017150D03*
X017235Y015960D03*
X015015Y015960D03*
X015015Y017150D03*
X013235Y017150D03*
X013235Y015960D03*
X013235Y019710D03*
X013235Y020900D03*
X015015Y020900D03*
X015015Y019710D03*
X017235Y019710D03*
X017235Y020900D03*
X019015Y020900D03*
X019015Y019710D03*
X020985Y019710D03*
X020985Y020900D03*
X022765Y020900D03*
X022765Y019710D03*
X024735Y019710D03*
X024735Y020900D03*
X026515Y020900D03*
X026515Y019710D03*
X026515Y023460D03*
X026515Y024650D03*
X024735Y024650D03*
X024735Y023460D03*
X022765Y023460D03*
X022765Y024650D03*
X020985Y024650D03*
X020985Y023460D03*
X019015Y023460D03*
X019015Y024650D03*
X017235Y024650D03*
X017235Y023460D03*
X015015Y023460D03*
X015015Y024650D03*
X013235Y024650D03*
X013235Y023460D03*
X013235Y027210D03*
X015015Y027210D03*
X017235Y027210D03*
X019015Y027210D03*
X020985Y027210D03*
X022765Y027210D03*
X024735Y027210D03*
X026515Y027210D03*
X026625Y029180D03*
X025625Y029180D03*
X024625Y029180D03*
X023625Y029180D03*
X022625Y029180D03*
X021625Y029180D03*
X020625Y029180D03*
X019025Y029180D03*
X018025Y029180D03*
X017025Y029180D03*
X016025Y029180D03*
X015025Y029180D03*
X014025Y029180D03*
X013025Y029180D03*
X012025Y029180D03*
X011025Y029180D03*
X010025Y029180D03*
X027625Y029180D03*
X029625Y029180D03*
X030625Y029180D03*
X031625Y029180D03*
X032625Y029180D03*
X033625Y029180D03*
X034625Y029180D03*
X035625Y029180D03*
X036625Y029180D03*
X039625Y029180D03*
X040625Y029180D03*
D15*
X040625Y031180D03*
X040625Y032680D03*
X038625Y031180D03*
X038125Y030680D03*
X036125Y030680D03*
X034875Y030680D03*
X033875Y030680D03*
X035375Y033180D03*
X036375Y033180D03*
X036375Y035180D03*
X037125Y035430D03*
X035375Y035180D03*
X040125Y035430D03*
X040625Y034680D03*
X028125Y034180D03*
X028125Y035430D03*
X025125Y035430D03*
X025125Y034180D03*
X025125Y032930D03*
X028125Y032930D03*
X020625Y030680D03*
X018625Y030680D03*
X015625Y030680D03*
X012625Y030680D03*
X015125Y033680D03*
X014125Y034180D03*
X011125Y034180D03*
X018125Y033680D03*
X044625Y013180D03*
X044625Y011680D03*
X044625Y010180D03*
X047625Y010180D03*
X047625Y011680D03*
X047625Y013180D03*
X048625Y014680D03*
X045625Y014680D03*
X012625Y010180D03*
X010625Y010180D03*
D16*
X044141Y027664D03*
X046109Y027664D03*
X045125Y025696D03*
D17*
X017625Y031680D03*
X016625Y031680D03*
X011125Y031680D03*
X010125Y031680D03*
X016125Y004180D03*
X017125Y004180D03*
D18*
X008586Y004696D03*
X008586Y006664D03*
X003664Y006664D03*
X003664Y004696D03*
X003664Y032196D03*
X003664Y034164D03*
X008586Y034164D03*
X008586Y032196D03*
D19*
X047125Y033420D02*
X047125Y033940D01*
X048125Y033940D02*
X048125Y033420D01*
X049125Y033420D02*
X049125Y033940D01*
D20*
X044625Y032460D03*
X044625Y029900D03*
D21*
X040625Y028180D03*
X039625Y028180D03*
X039625Y027180D03*
X039625Y026180D03*
X040625Y026180D03*
X040625Y027180D03*
X040625Y025180D03*
X040625Y024180D03*
X039625Y024180D03*
X039625Y025180D03*
X039625Y023180D03*
X040625Y023180D03*
X040625Y022180D03*
X040625Y021180D03*
X039625Y021180D03*
X039625Y022180D03*
X039625Y020180D03*
X039625Y019180D03*
X040625Y019180D03*
X040625Y020180D03*
X040625Y018180D03*
X039625Y018180D03*
X039625Y017180D03*
X039625Y016180D03*
X040625Y016180D03*
X040625Y017180D03*
X040625Y015180D03*
X039625Y015180D03*
X039625Y014180D03*
X039625Y013180D03*
X040625Y013180D03*
X040625Y014180D03*
D22*
X040625Y010180D03*
X028625Y012180D03*
X028625Y023180D03*
X038125Y029180D03*
X008625Y029180D03*
X008125Y010180D03*
D23*
X004321Y011584D02*
X003929Y011584D01*
X003929Y011776D01*
X004321Y011776D01*
X004321Y011584D01*
X004321Y011631D02*
X003929Y011631D01*
X003929Y011678D02*
X004321Y011678D01*
X004321Y011725D02*
X003929Y011725D01*
X003929Y011772D02*
X004321Y011772D01*
X004321Y012584D02*
X003929Y012584D01*
X003929Y012776D01*
X004321Y012776D01*
X004321Y012584D01*
X004321Y012631D02*
X003929Y012631D01*
X003929Y012678D02*
X004321Y012678D01*
X004321Y012725D02*
X003929Y012725D01*
X003929Y012772D02*
X004321Y012772D01*
X003821Y023084D02*
X003429Y023084D01*
X003429Y023276D01*
X003821Y023276D01*
X003821Y023084D01*
X003821Y023131D02*
X003429Y023131D01*
X003429Y023178D02*
X003821Y023178D01*
X003821Y023225D02*
X003429Y023225D01*
X003429Y023272D02*
X003821Y023272D01*
X003821Y023584D02*
X003429Y023584D01*
X003429Y023776D01*
X003821Y023776D01*
X003821Y023584D01*
X003821Y023631D02*
X003429Y023631D01*
X003429Y023678D02*
X003821Y023678D01*
X003821Y023725D02*
X003429Y023725D01*
X003429Y023772D02*
X003821Y023772D01*
X003821Y024584D02*
X003429Y024584D01*
X003429Y024776D01*
X003821Y024776D01*
X003821Y024584D01*
X003821Y024631D02*
X003429Y024631D01*
X003429Y024678D02*
X003821Y024678D01*
X003821Y024725D02*
X003429Y024725D01*
X003429Y024772D02*
X003821Y024772D01*
X003821Y025084D02*
X003429Y025084D01*
X003429Y025276D01*
X003821Y025276D01*
X003821Y025084D01*
X003821Y025131D02*
X003429Y025131D01*
X003429Y025178D02*
X003821Y025178D01*
X003821Y025225D02*
X003429Y025225D01*
X003429Y025272D02*
X003821Y025272D01*
D24*
X013377Y035430D03*
X014125Y035430D03*
X014912Y035430D03*
X012623Y003430D03*
X011875Y003430D03*
X011088Y003430D03*
D25*
X009985Y003430D03*
X013765Y003430D03*
X012235Y035430D03*
X016015Y035430D03*
D26*
X006831Y023966D03*
X006831Y022966D03*
X006831Y021966D03*
X006831Y020966D03*
X006831Y019966D03*
X006831Y018966D03*
X006831Y017966D03*
X006831Y016966D03*
D27*
X038625Y034380D03*
X042625Y034380D03*
D28*
X042625Y032980D03*
X038625Y032980D03*
D29*
X021425Y008180D02*
X020825Y008180D01*
X020825Y007180D02*
X021425Y007180D01*
X020425Y005680D02*
X019825Y005680D01*
X019825Y004680D02*
X020425Y004680D01*
X020425Y003680D02*
X019825Y003680D01*
D30*
X030186Y031517D03*
X030186Y031773D03*
X030186Y032028D03*
X030186Y032284D03*
X030186Y032540D03*
X030186Y032796D03*
X030186Y033052D03*
X030186Y033308D03*
X030186Y033564D03*
X030186Y033820D03*
X030186Y034076D03*
X030186Y034332D03*
X030186Y034587D03*
X030186Y034843D03*
X033064Y034843D03*
X033064Y034587D03*
X033064Y034332D03*
X033064Y034076D03*
X033064Y033820D03*
X033064Y033564D03*
X033064Y033308D03*
X033064Y033052D03*
X033064Y032796D03*
X033064Y032540D03*
X033064Y032284D03*
X033064Y032028D03*
X033064Y031773D03*
X033064Y031517D03*
D31*
X023625Y031180D03*
X021625Y031180D03*
D32*
X022125Y008680D03*
X026125Y008680D03*
D33*
X037625Y032129D03*
X037625Y033231D03*
D34*
X024095Y006680D03*
X022125Y005500D03*
D35*
X024095Y004320D03*
D36*
X022117Y032326D03*
X021133Y032326D03*
X021133Y033113D03*
X022117Y033113D03*
D37*
X023995Y034180D03*
X019255Y034180D03*
M02*
