G75*
%MOIN*%
%OFA0B0*%
%FSLAX24Y24*%
%IPPOS*%
%LPD*%
%AMOC8*
5,1,8,0,0,1.08239X$1,22.5*
%
%ADD10C,0.0000*%
%ADD11C,0.0040*%
%ADD12R,0.0550X0.0137*%
%ADD13R,0.0709X0.0630*%
D10*
X002625Y002680D02*
X002625Y036050D01*
X050117Y036050D01*
X050117Y002680D01*
X002625Y002680D01*
X007495Y010180D02*
X007497Y010230D01*
X007503Y010280D01*
X007513Y010329D01*
X007527Y010377D01*
X007544Y010424D01*
X007565Y010469D01*
X007590Y010513D01*
X007618Y010554D01*
X007650Y010593D01*
X007684Y010630D01*
X007721Y010664D01*
X007761Y010694D01*
X007803Y010721D01*
X007847Y010745D01*
X007893Y010766D01*
X007940Y010782D01*
X007988Y010795D01*
X008038Y010804D01*
X008087Y010809D01*
X008138Y010810D01*
X008188Y010807D01*
X008237Y010800D01*
X008286Y010789D01*
X008334Y010774D01*
X008380Y010756D01*
X008425Y010734D01*
X008468Y010708D01*
X008509Y010679D01*
X008548Y010647D01*
X008584Y010612D01*
X008616Y010574D01*
X008646Y010534D01*
X008673Y010491D01*
X008696Y010447D01*
X008715Y010401D01*
X008731Y010353D01*
X008743Y010304D01*
X008751Y010255D01*
X008755Y010205D01*
X008755Y010155D01*
X008751Y010105D01*
X008743Y010056D01*
X008731Y010007D01*
X008715Y009959D01*
X008696Y009913D01*
X008673Y009869D01*
X008646Y009826D01*
X008616Y009786D01*
X008584Y009748D01*
X008548Y009713D01*
X008509Y009681D01*
X008468Y009652D01*
X008425Y009626D01*
X008380Y009604D01*
X008334Y009586D01*
X008286Y009571D01*
X008237Y009560D01*
X008188Y009553D01*
X008138Y009550D01*
X008087Y009551D01*
X008038Y009556D01*
X007988Y009565D01*
X007940Y009578D01*
X007893Y009594D01*
X007847Y009615D01*
X007803Y009639D01*
X007761Y009666D01*
X007721Y009696D01*
X007684Y009730D01*
X007650Y009767D01*
X007618Y009806D01*
X007590Y009847D01*
X007565Y009891D01*
X007544Y009936D01*
X007527Y009983D01*
X007513Y010031D01*
X007503Y010080D01*
X007497Y010130D01*
X007495Y010180D01*
X027995Y012180D02*
X027997Y012230D01*
X028003Y012280D01*
X028013Y012329D01*
X028027Y012377D01*
X028044Y012424D01*
X028065Y012469D01*
X028090Y012513D01*
X028118Y012554D01*
X028150Y012593D01*
X028184Y012630D01*
X028221Y012664D01*
X028261Y012694D01*
X028303Y012721D01*
X028347Y012745D01*
X028393Y012766D01*
X028440Y012782D01*
X028488Y012795D01*
X028538Y012804D01*
X028587Y012809D01*
X028638Y012810D01*
X028688Y012807D01*
X028737Y012800D01*
X028786Y012789D01*
X028834Y012774D01*
X028880Y012756D01*
X028925Y012734D01*
X028968Y012708D01*
X029009Y012679D01*
X029048Y012647D01*
X029084Y012612D01*
X029116Y012574D01*
X029146Y012534D01*
X029173Y012491D01*
X029196Y012447D01*
X029215Y012401D01*
X029231Y012353D01*
X029243Y012304D01*
X029251Y012255D01*
X029255Y012205D01*
X029255Y012155D01*
X029251Y012105D01*
X029243Y012056D01*
X029231Y012007D01*
X029215Y011959D01*
X029196Y011913D01*
X029173Y011869D01*
X029146Y011826D01*
X029116Y011786D01*
X029084Y011748D01*
X029048Y011713D01*
X029009Y011681D01*
X028968Y011652D01*
X028925Y011626D01*
X028880Y011604D01*
X028834Y011586D01*
X028786Y011571D01*
X028737Y011560D01*
X028688Y011553D01*
X028638Y011550D01*
X028587Y011551D01*
X028538Y011556D01*
X028488Y011565D01*
X028440Y011578D01*
X028393Y011594D01*
X028347Y011615D01*
X028303Y011639D01*
X028261Y011666D01*
X028221Y011696D01*
X028184Y011730D01*
X028150Y011767D01*
X028118Y011806D01*
X028090Y011847D01*
X028065Y011891D01*
X028044Y011936D01*
X028027Y011983D01*
X028013Y012031D01*
X028003Y012080D01*
X027997Y012130D01*
X027995Y012180D01*
X039995Y010180D02*
X039997Y010230D01*
X040003Y010280D01*
X040013Y010329D01*
X040027Y010377D01*
X040044Y010424D01*
X040065Y010469D01*
X040090Y010513D01*
X040118Y010554D01*
X040150Y010593D01*
X040184Y010630D01*
X040221Y010664D01*
X040261Y010694D01*
X040303Y010721D01*
X040347Y010745D01*
X040393Y010766D01*
X040440Y010782D01*
X040488Y010795D01*
X040538Y010804D01*
X040587Y010809D01*
X040638Y010810D01*
X040688Y010807D01*
X040737Y010800D01*
X040786Y010789D01*
X040834Y010774D01*
X040880Y010756D01*
X040925Y010734D01*
X040968Y010708D01*
X041009Y010679D01*
X041048Y010647D01*
X041084Y010612D01*
X041116Y010574D01*
X041146Y010534D01*
X041173Y010491D01*
X041196Y010447D01*
X041215Y010401D01*
X041231Y010353D01*
X041243Y010304D01*
X041251Y010255D01*
X041255Y010205D01*
X041255Y010155D01*
X041251Y010105D01*
X041243Y010056D01*
X041231Y010007D01*
X041215Y009959D01*
X041196Y009913D01*
X041173Y009869D01*
X041146Y009826D01*
X041116Y009786D01*
X041084Y009748D01*
X041048Y009713D01*
X041009Y009681D01*
X040968Y009652D01*
X040925Y009626D01*
X040880Y009604D01*
X040834Y009586D01*
X040786Y009571D01*
X040737Y009560D01*
X040688Y009553D01*
X040638Y009550D01*
X040587Y009551D01*
X040538Y009556D01*
X040488Y009565D01*
X040440Y009578D01*
X040393Y009594D01*
X040347Y009615D01*
X040303Y009639D01*
X040261Y009666D01*
X040221Y009696D01*
X040184Y009730D01*
X040150Y009767D01*
X040118Y009806D01*
X040090Y009847D01*
X040065Y009891D01*
X040044Y009936D01*
X040027Y009983D01*
X040013Y010031D01*
X040003Y010080D01*
X039997Y010130D01*
X039995Y010180D01*
X027995Y023180D02*
X027997Y023230D01*
X028003Y023280D01*
X028013Y023329D01*
X028027Y023377D01*
X028044Y023424D01*
X028065Y023469D01*
X028090Y023513D01*
X028118Y023554D01*
X028150Y023593D01*
X028184Y023630D01*
X028221Y023664D01*
X028261Y023694D01*
X028303Y023721D01*
X028347Y023745D01*
X028393Y023766D01*
X028440Y023782D01*
X028488Y023795D01*
X028538Y023804D01*
X028587Y023809D01*
X028638Y023810D01*
X028688Y023807D01*
X028737Y023800D01*
X028786Y023789D01*
X028834Y023774D01*
X028880Y023756D01*
X028925Y023734D01*
X028968Y023708D01*
X029009Y023679D01*
X029048Y023647D01*
X029084Y023612D01*
X029116Y023574D01*
X029146Y023534D01*
X029173Y023491D01*
X029196Y023447D01*
X029215Y023401D01*
X029231Y023353D01*
X029243Y023304D01*
X029251Y023255D01*
X029255Y023205D01*
X029255Y023155D01*
X029251Y023105D01*
X029243Y023056D01*
X029231Y023007D01*
X029215Y022959D01*
X029196Y022913D01*
X029173Y022869D01*
X029146Y022826D01*
X029116Y022786D01*
X029084Y022748D01*
X029048Y022713D01*
X029009Y022681D01*
X028968Y022652D01*
X028925Y022626D01*
X028880Y022604D01*
X028834Y022586D01*
X028786Y022571D01*
X028737Y022560D01*
X028688Y022553D01*
X028638Y022550D01*
X028587Y022551D01*
X028538Y022556D01*
X028488Y022565D01*
X028440Y022578D01*
X028393Y022594D01*
X028347Y022615D01*
X028303Y022639D01*
X028261Y022666D01*
X028221Y022696D01*
X028184Y022730D01*
X028150Y022767D01*
X028118Y022806D01*
X028090Y022847D01*
X028065Y022891D01*
X028044Y022936D01*
X028027Y022983D01*
X028013Y023031D01*
X028003Y023080D01*
X027997Y023130D01*
X027995Y023180D01*
X037495Y029180D02*
X037497Y029230D01*
X037503Y029280D01*
X037513Y029329D01*
X037527Y029377D01*
X037544Y029424D01*
X037565Y029469D01*
X037590Y029513D01*
X037618Y029554D01*
X037650Y029593D01*
X037684Y029630D01*
X037721Y029664D01*
X037761Y029694D01*
X037803Y029721D01*
X037847Y029745D01*
X037893Y029766D01*
X037940Y029782D01*
X037988Y029795D01*
X038038Y029804D01*
X038087Y029809D01*
X038138Y029810D01*
X038188Y029807D01*
X038237Y029800D01*
X038286Y029789D01*
X038334Y029774D01*
X038380Y029756D01*
X038425Y029734D01*
X038468Y029708D01*
X038509Y029679D01*
X038548Y029647D01*
X038584Y029612D01*
X038616Y029574D01*
X038646Y029534D01*
X038673Y029491D01*
X038696Y029447D01*
X038715Y029401D01*
X038731Y029353D01*
X038743Y029304D01*
X038751Y029255D01*
X038755Y029205D01*
X038755Y029155D01*
X038751Y029105D01*
X038743Y029056D01*
X038731Y029007D01*
X038715Y028959D01*
X038696Y028913D01*
X038673Y028869D01*
X038646Y028826D01*
X038616Y028786D01*
X038584Y028748D01*
X038548Y028713D01*
X038509Y028681D01*
X038468Y028652D01*
X038425Y028626D01*
X038380Y028604D01*
X038334Y028586D01*
X038286Y028571D01*
X038237Y028560D01*
X038188Y028553D01*
X038138Y028550D01*
X038087Y028551D01*
X038038Y028556D01*
X037988Y028565D01*
X037940Y028578D01*
X037893Y028594D01*
X037847Y028615D01*
X037803Y028639D01*
X037761Y028666D01*
X037721Y028696D01*
X037684Y028730D01*
X037650Y028767D01*
X037618Y028806D01*
X037590Y028847D01*
X037565Y028891D01*
X037544Y028936D01*
X037527Y028983D01*
X037513Y029031D01*
X037503Y029080D01*
X037497Y029130D01*
X037495Y029180D01*
X007995Y029180D02*
X007997Y029230D01*
X008003Y029280D01*
X008013Y029329D01*
X008027Y029377D01*
X008044Y029424D01*
X008065Y029469D01*
X008090Y029513D01*
X008118Y029554D01*
X008150Y029593D01*
X008184Y029630D01*
X008221Y029664D01*
X008261Y029694D01*
X008303Y029721D01*
X008347Y029745D01*
X008393Y029766D01*
X008440Y029782D01*
X008488Y029795D01*
X008538Y029804D01*
X008587Y029809D01*
X008638Y029810D01*
X008688Y029807D01*
X008737Y029800D01*
X008786Y029789D01*
X008834Y029774D01*
X008880Y029756D01*
X008925Y029734D01*
X008968Y029708D01*
X009009Y029679D01*
X009048Y029647D01*
X009084Y029612D01*
X009116Y029574D01*
X009146Y029534D01*
X009173Y029491D01*
X009196Y029447D01*
X009215Y029401D01*
X009231Y029353D01*
X009243Y029304D01*
X009251Y029255D01*
X009255Y029205D01*
X009255Y029155D01*
X009251Y029105D01*
X009243Y029056D01*
X009231Y029007D01*
X009215Y028959D01*
X009196Y028913D01*
X009173Y028869D01*
X009146Y028826D01*
X009116Y028786D01*
X009084Y028748D01*
X009048Y028713D01*
X009009Y028681D01*
X008968Y028652D01*
X008925Y028626D01*
X008880Y028604D01*
X008834Y028586D01*
X008786Y028571D01*
X008737Y028560D01*
X008688Y028553D01*
X008638Y028550D01*
X008587Y028551D01*
X008538Y028556D01*
X008488Y028565D01*
X008440Y028578D01*
X008393Y028594D01*
X008347Y028615D01*
X008303Y028639D01*
X008261Y028666D01*
X008221Y028696D01*
X008184Y028730D01*
X008150Y028767D01*
X008118Y028806D01*
X008090Y028847D01*
X008065Y028891D01*
X008044Y028936D01*
X008027Y028983D01*
X008013Y029031D01*
X008003Y029080D01*
X007997Y029130D01*
X007995Y029180D01*
D11*
X003805Y025100D02*
X003445Y025100D01*
X003445Y025260D01*
X003805Y025260D01*
X003805Y025100D01*
X003805Y025139D02*
X003445Y025139D01*
X003445Y025178D02*
X003805Y025178D01*
X003805Y025217D02*
X003445Y025217D01*
X003445Y025256D02*
X003805Y025256D01*
X003805Y024600D02*
X003445Y024600D01*
X003445Y024760D01*
X003805Y024760D01*
X003805Y024600D01*
X003805Y024639D02*
X003445Y024639D01*
X003445Y024678D02*
X003805Y024678D01*
X003805Y024717D02*
X003445Y024717D01*
X003445Y024756D02*
X003805Y024756D01*
X003805Y023600D02*
X003445Y023600D01*
X003445Y023760D01*
X003805Y023760D01*
X003805Y023600D01*
X003805Y023639D02*
X003445Y023639D01*
X003445Y023678D02*
X003805Y023678D01*
X003805Y023717D02*
X003445Y023717D01*
X003445Y023756D02*
X003805Y023756D01*
X003805Y023100D02*
X003445Y023100D01*
X003445Y023260D01*
X003805Y023260D01*
X003805Y023100D01*
X003805Y023139D02*
X003445Y023139D01*
X003445Y023178D02*
X003805Y023178D01*
X003805Y023217D02*
X003445Y023217D01*
X003445Y023256D02*
X003805Y023256D01*
X003945Y012600D02*
X004305Y012600D01*
X003945Y012600D02*
X003945Y012760D01*
X004305Y012760D01*
X004305Y012600D01*
X004305Y012639D02*
X003945Y012639D01*
X003945Y012678D02*
X004305Y012678D01*
X004305Y012717D02*
X003945Y012717D01*
X003945Y012756D02*
X004305Y012756D01*
X004305Y011600D02*
X003945Y011600D01*
X003945Y011760D01*
X004305Y011760D01*
X004305Y011600D01*
X004305Y011639D02*
X003945Y011639D01*
X003945Y011678D02*
X004305Y011678D01*
X004305Y011717D02*
X003945Y011717D01*
X003945Y011756D02*
X004305Y011756D01*
D12*
X030186Y031517D03*
X030186Y031773D03*
X030186Y032028D03*
X030186Y032284D03*
X030186Y032540D03*
X030186Y032796D03*
X030186Y033052D03*
X030186Y033308D03*
X030186Y033564D03*
X030186Y033820D03*
X030186Y034076D03*
X030186Y034332D03*
X030186Y034587D03*
X030186Y034843D03*
X033064Y034843D03*
X033064Y034587D03*
X033064Y034332D03*
X033064Y034076D03*
X033064Y033820D03*
X033064Y033564D03*
X033064Y033308D03*
X033064Y033052D03*
X033064Y032796D03*
X033064Y032540D03*
X033064Y032284D03*
X033064Y032028D03*
X033064Y031773D03*
X033064Y031517D03*
D13*
X037625Y032129D03*
X037625Y033231D03*
M02*
